# xmcd
#
# Track frame offsets: 
#        150
#        13498
#        22483
#        29912
#        40973
#        56226
#        71691
#        81579
#        94670
#        105558
#
# Disc length: 1586 seconds
#
# Revision: 0
# Processed by: cddbd v1.5.2PL0 Copyright (c) Steve Scherf et al.
# Submitted via: ExactAudioCopy v1.0b3
#
DISCID=9806300a
DTITLE=The Wildwood Family - The Wildwood Family
DYEAR=2013
DGENRE=Folk
TTITLE0=Wildwood Flower
TTITLE1=Around the Corner (Looking for Henry Lee)
TTITLE2=Sweet Talkin' Man
TTITLE3=Cotton Fields
TTITLE4=Fair and Tender Ladies
TTITLE5=Pretty Polly
TTITLE6=He Went Slippin' Around
TTITLE7=Ring of Fire
TTITLE8=It's My Lazy Day
TTITLE9=Foggy Mountain Top
EXTD=
EXTT0=
EXTT1=
EXTT2=
EXTT3=
EXTT4=
EXTT5=
EXTT6=
EXTT7=
EXTT8=
EXTT9=
PLAYORDER=
